<svg width="132" height="18" viewBox="0 0 132 18" fill="none" xmlns="http://www.w3.org/2000/svg">
<path d="M9.50023 4.26365C9.50023 4.95221 9.32201 5.58405 8.96559 6.1592C8.60916 6.73434 8.09072 7.20418 7.41027 7.56871C6.72981 7.93324 5.91975 8.1479 4.98008 8.21271L4.45759 11.1411C4.25507 12.2671 3.70423 12.8301 2.80506 12.8301C2.31092 12.8301 1.85323 12.6843 1.432 12.3926C1.01887 12.101 0.686742 11.6555 0.435623 11.056C0.184503 10.4566 0.0589435 9.71943 0.0589435 8.84456C0.0589435 7.20013 0.322214 5.80682 0.848755 4.66463C1.3834 3.51434 2.09625 2.65568 2.98732 2.08863C3.88649 1.51349 4.87477 1.22592 5.95215 1.22592C6.71361 1.22592 7.35761 1.35958 7.88415 1.6269C8.41879 1.89422 8.81978 2.25875 9.0871 2.72048C9.36252 3.17412 9.50023 3.68851 9.50023 4.26365ZM5.19879 6.96116C6.85942 6.75055 7.68974 5.88783 7.68974 4.37301C7.68974 3.83837 7.51152 3.40498 7.1551 3.07286C6.80677 2.73263 6.26403 2.56252 5.52687 2.56252C4.6925 2.56252 3.96345 2.82579 3.3397 3.35233C2.72405 3.87887 2.24611 4.61198 1.90589 5.55165C1.57376 6.48322 1.4077 7.54846 1.4077 8.74735C1.4077 9.24959 1.4563 9.69512 1.55351 10.084C1.65882 10.4728 1.78843 10.7766 1.94234 10.9953C2.10435 11.2059 2.25826 11.3112 2.40408 11.3112C2.60659 11.3112 2.7605 11.0317 2.86581 10.4728L3.26679 8.17626C2.95087 8.12765 2.81316 8.1074 2.85366 8.1155C2.61064 8.075 2.45268 8.00209 2.37977 7.89678C2.30687 7.78338 2.27042 7.64161 2.27042 7.4715C2.27042 7.29329 2.31902 7.15153 2.41623 7.04622C2.52154 6.94091 2.6633 6.88826 2.84151 6.88826C2.92252 6.88826 2.98327 6.89231 3.02377 6.90041C3.21819 6.93281 3.36805 6.95306 3.47336 6.96116C3.57867 6.32931 3.72853 5.4828 3.92294 4.42161C3.97155 4.14619 4.08091 3.95178 4.25102 3.83837C4.42923 3.71686 4.6358 3.6561 4.87072 3.6561C5.13804 3.6561 5.3284 3.70876 5.44181 3.81407C5.56332 3.91127 5.62408 4.06924 5.62408 4.28795C5.62408 4.41756 5.61598 4.52287 5.59977 4.60388L5.19879 6.96116ZM14.6751 8.79595C14.7804 8.79595 14.8614 8.84456 14.9181 8.94177C14.9829 9.03897 15.0153 9.17263 15.0153 9.34275C15.0153 9.66677 14.9384 9.91789 14.7845 10.0961C14.4847 10.4606 14.0595 10.7968 13.5086 11.1046C12.9659 11.4125 12.3826 11.5664 11.7589 11.5664C10.9083 11.5664 10.2481 11.3355 9.77828 10.8738C9.30844 10.412 9.07352 9.78018 9.07352 8.97822C9.07352 8.41928 9.19098 7.90083 9.4259 7.4229C9.66082 6.93686 9.98484 6.55208 10.398 6.26856C10.8192 5.98504 11.2931 5.84327 11.8196 5.84327C12.2895 5.84327 12.6662 5.98504 12.9497 6.26856C13.2332 6.54398 13.375 6.92066 13.375 7.3986C13.375 7.95754 13.1724 8.43953 12.7674 8.84456C12.3705 9.24149 11.6941 9.55741 10.7382 9.79233C10.9407 10.165 11.3255 10.3513 11.8925 10.3513C12.2571 10.3513 12.6702 10.2257 13.1319 9.9746C13.6018 9.71538 14.0068 9.3792 14.347 8.96607C14.4442 8.85266 14.5536 8.79595 14.6751 8.79595ZM11.6131 7.03407C11.3133 7.03407 11.0582 7.20823 10.8476 7.55656C10.645 7.90489 10.5438 8.32612 10.5438 8.82026V8.84456C11.0217 8.73115 11.3984 8.56104 11.6738 8.33422C11.9492 8.1074 12.087 7.84413 12.087 7.54441C12.087 7.3905 12.0424 7.26899 11.9533 7.17988C11.8723 7.08267 11.7589 7.03407 11.6131 7.03407ZM19.4453 8.79595C19.5506 8.79595 19.6316 8.84456 19.6883 8.94177C19.7531 9.03897 19.7855 9.17263 19.7855 9.34275C19.7855 9.66677 19.7086 9.91789 19.5547 10.0961C19.2549 10.4606 18.8297 10.7968 18.2788 11.1046C17.7361 11.4125 17.1528 11.5664 16.5291 11.5664C15.6785 11.5664 15.0183 11.3355 14.5485 10.8738C14.0786 10.412 13.8437 9.78018 13.8437 8.97822C13.8437 8.41928 13.9612 7.90083 14.1961 7.4229C14.431 6.93686 14.755 6.55208 15.1682 6.26856C15.5894 5.98504 16.0633 5.84327 16.5898 5.84327C17.0597 5.84327 17.4363 5.98504 17.7199 6.26856C18.0034 6.54398 18.1452 6.92066 18.1452 7.3986C18.1452 7.95754 17.9426 8.43953 17.5376 8.84456C17.1407 9.24149 16.4643 9.55741 15.5084 9.79233C15.7109 10.165 16.0957 10.3513 16.6627 10.3513C17.0273 10.3513 17.4404 10.2257 17.9021 9.9746C18.372 9.71538 18.777 9.3792 19.1172 8.96607C19.2144 8.85266 19.3238 8.79595 19.4453 8.79595ZM16.3833 7.03407C16.0835 7.03407 15.8284 7.20823 15.6178 7.55656C15.4152 7.90489 15.314 8.32612 15.314 8.82026V8.84456C15.7919 8.73115 16.1686 8.56104 16.444 8.33422C16.7194 8.1074 16.8572 7.84413 16.8572 7.54441C16.8572 7.3905 16.8126 7.26899 16.7235 7.17988C16.6425 7.08267 16.5291 7.03407 16.3833 7.03407ZM23.7052 7.50795C23.8834 7.50795 24.0332 7.57276 24.1547 7.70237C24.2844 7.82388 24.3492 7.97779 24.3492 8.16411C24.3492 8.26941 24.3249 8.38282 24.2763 8.50433C24.1466 8.80406 23.9644 9.05517 23.7295 9.25769C23.4945 9.46021 23.2353 9.56146 22.9518 9.56146C22.725 9.56146 22.5306 9.48046 22.3686 9.31845C22.2146 9.15643 22.1377 8.93772 22.1377 8.66229C22.1377 8.50838 22.1458 8.34232 22.162 8.16411C22.1782 8.0345 22.1863 7.94539 22.1863 7.89678C22.1863 7.83198 22.1701 7.78338 22.1377 7.75097C22.1134 7.71857 22.081 7.70237 22.0405 7.70237C21.9271 7.70237 21.7732 7.84008 21.5787 8.1155C21.3843 8.38282 21.1899 8.73925 20.9955 9.18478C20.8011 9.63032 20.6431 10.1002 20.5216 10.5943C20.4325 10.9831 20.3312 11.2423 20.2178 11.372C20.1044 11.5016 19.9181 11.5664 19.6589 11.5664C19.3511 11.5664 19.1324 11.4044 19.0027 11.0803C18.8812 10.7563 18.8205 10.2379 18.8205 9.52501C18.8205 8.47193 18.9703 7.4715 19.2701 6.52373C19.343 6.28881 19.4604 6.1187 19.6224 6.01339C19.7926 5.89998 20.0275 5.84327 20.3272 5.84327C20.4892 5.84327 20.6026 5.86353 20.6674 5.90403C20.7322 5.94453 20.7646 6.02149 20.7646 6.1349C20.7646 6.26451 20.7039 6.55613 20.5824 7.00977C20.5014 7.33379 20.4366 7.61731 20.3879 7.86033C20.3393 8.10335 20.2988 8.40307 20.2664 8.7595C20.5338 8.06285 20.8335 7.4958 21.1656 7.05837C21.4977 6.62094 21.8218 6.30906 22.1377 6.12275C22.4536 5.93643 22.7412 5.84327 23.0004 5.84327C23.2353 5.84327 23.4135 5.91213 23.535 6.04984C23.6647 6.17945 23.7295 6.37387 23.7295 6.63309C23.7295 6.787 23.6849 7.07862 23.5958 7.50795H23.7052ZM33.4474 8.79595C33.5527 8.79595 33.6337 8.84456 33.6904 8.94177C33.7552 9.03897 33.7876 9.17263 33.7876 9.34275C33.7876 9.66677 33.7106 9.91789 33.5567 10.0961C33.2084 10.5254 32.8277 10.8778 32.4145 11.1532C32.0014 11.4287 31.5275 11.5664 30.9929 11.5664C29.3403 11.5664 28.5141 10.4039 28.5141 8.07905C28.5141 7.72262 28.5262 7.36214 28.5505 6.99761H28.0766C27.8336 6.99761 27.6676 6.95306 27.5785 6.86395C27.4975 6.77485 27.457 6.63309 27.457 6.43867C27.457 5.98504 27.6392 5.75822 28.0037 5.75822H28.6963C28.8341 4.86715 29.0447 4.05304 29.3282 3.31588C29.6117 2.57872 29.9519 1.99142 30.3489 1.55399C30.7539 1.11656 31.1873 0.89784 31.649 0.89784C31.9893 0.89784 32.2566 1.0477 32.451 1.34743C32.6454 1.64715 32.7426 2.02383 32.7426 2.47746C32.7426 3.73306 32.2161 4.82665 31.163 5.75822H32.5239C32.6535 5.75822 32.7467 5.78657 32.8034 5.84327C32.8601 5.89998 32.8884 6.00529 32.8884 6.1592C32.8884 6.71814 32.4307 6.99761 31.5154 6.99761H30.033C30.0167 7.40265 30.0086 7.71857 30.0086 7.94539C30.0086 8.78785 30.1059 9.3792 30.3003 9.71943C30.5028 10.0597 30.8187 10.2298 31.248 10.2298C31.5964 10.2298 31.9042 10.1245 32.1715 9.91384C32.4388 9.70323 32.7548 9.3873 33.1193 8.96607C33.2165 8.85266 33.3259 8.79595 33.4474 8.79595ZM31.321 2.06433C31.1994 2.06433 31.0617 2.21824 30.9078 2.52607C30.762 2.82579 30.6202 3.24702 30.4825 3.78976C30.3529 4.32441 30.2436 4.9198 30.1545 5.57595C30.6324 5.16282 30.9888 4.70109 31.2237 4.19075C31.4668 3.67231 31.5883 3.20247 31.5883 2.78124C31.5883 2.3033 31.4992 2.06433 31.321 2.06433ZM34.8518 11.5664C34.3738 11.5664 33.9647 11.4489 33.6245 11.214C33.2924 10.971 33.0413 10.655 32.8711 10.2662C32.701 9.87739 32.616 9.46021 32.616 9.01467C32.616 8.39902 32.7294 7.85223 32.9562 7.37429C33.1911 6.88826 33.507 6.51158 33.904 6.24426C34.3009 5.96883 34.7464 5.83112 35.2406 5.83112C35.7185 5.83112 36.1276 5.95263 36.4678 6.19565C36.8081 6.43057 37.0632 6.74244 37.2333 7.13127C37.4034 7.52011 37.4885 7.93729 37.4885 8.38282C37.4885 8.99847 37.371 9.54931 37.1361 10.0354C36.9012 10.5133 36.5812 10.89 36.1762 11.1654C35.7793 11.4327 35.3378 11.5664 34.8518 11.5664ZM34.9854 10.2541C35.2608 10.2541 35.4917 10.1042 35.678 9.80448C35.8724 9.50476 35.9696 9.06733 35.9696 8.49218C35.9696 8.04665 35.8886 7.71047 35.7266 7.48365C35.5646 7.25683 35.3702 7.14343 35.1434 7.14343C34.8518 7.14343 34.6087 7.29329 34.4143 7.59301C34.228 7.88463 34.1348 8.32207 34.1348 8.90531C34.1348 9.36705 34.2159 9.70728 34.3779 9.92599C34.5399 10.1447 34.7424 10.2541 34.9854 10.2541ZM50.9368 4.26365C50.9368 4.95221 50.7586 5.58405 50.4022 6.1592C50.0458 6.73434 49.5273 7.20418 48.8469 7.56871C48.1664 7.93324 47.3564 8.1479 46.4167 8.21271L45.8942 11.1411C45.6917 12.2671 45.1408 12.8301 44.2417 12.8301C43.7475 12.8301 43.2899 12.6843 42.8686 12.3926C42.4555 12.101 42.1234 11.6555 41.8722 11.056C41.6211 10.4566 41.4956 9.71943 41.4956 8.84456C41.4956 7.20013 41.7588 5.80682 42.2854 4.66463C42.82 3.51434 43.5329 2.65568 44.4239 2.08863C45.3231 1.51349 46.3114 1.22592 47.3888 1.22592C48.1502 1.22592 48.7942 1.35958 49.3208 1.6269C49.8554 1.89422 50.2564 2.25875 50.5237 2.72048C50.7991 3.17412 50.9368 3.68851 50.9368 4.26365ZM46.6354 6.96116C48.296 6.75055 49.1264 5.88783 49.1264 4.37301C49.1264 3.83837 48.9481 3.40498 48.5917 3.07286C48.2434 2.73263 47.7006 2.56252 46.9635 2.56252C46.1291 2.56252 45.4001 2.82579 44.7763 3.35233C44.1607 3.87887 43.6827 4.61198 43.3425 5.55165C43.0104 6.48322 42.8443 7.54846 42.8443 8.74735C42.8443 9.24959 42.8929 9.69512 42.9901 10.084C43.0954 10.4728 43.225 10.7766 43.379 10.9953C43.541 11.2059 43.6949 11.3112 43.8407 11.3112C44.0432 11.3112 44.1971 11.0317 44.3024 10.4728L44.7034 8.17626C44.3875 8.12765 44.2498 8.1074 44.2903 8.1155C44.0473 8.075 43.8893 8.00209 43.8164 7.89678C43.7435 7.78338 43.707 7.64161 43.707 7.4715C43.707 7.29329 43.7556 7.15153 43.8528 7.04622C43.9582 6.94091 44.0999 6.88826 44.2781 6.88826C44.3591 6.88826 44.4199 6.89231 44.4604 6.90041C44.6548 6.93281 44.8047 6.95306 44.91 6.96116C45.0153 6.32931 45.1651 5.4828 45.3596 4.42161C45.4082 4.14619 45.5175 3.95178 45.6876 3.83837C45.8659 3.71686 46.0724 3.6561 46.3073 3.6561C46.5747 3.6561 46.765 3.70876 46.8784 3.81407C46.9999 3.91127 47.0607 4.06924 47.0607 4.28795C47.0607 4.41756 47.0526 4.52287 47.0364 4.60388L46.6354 6.96116ZM56.1117 8.79595C56.217 8.79595 56.298 8.84456 56.3547 8.94177C56.4196 9.03897 56.452 9.17263 56.452 9.34275C56.452 9.66677 56.375 9.91789 56.2211 10.0961C55.9214 10.4606 55.4961 10.7968 54.9452 11.1046C54.4025 11.4125 53.8193 11.5664 53.1955 11.5664C52.3449 11.5664 51.6847 11.3355 51.2149 10.8738C50.7451 10.412 50.5101 9.78018 50.5101 8.97822C50.5101 8.41928 50.6276 7.90083 50.8625 7.4229C51.0974 6.93686 51.4215 6.55208 51.8346 6.26856C52.2558 5.98504 52.7297 5.84327 53.2563 5.84327C53.7261 5.84327 54.1028 5.98504 54.3863 6.26856C54.6698 6.54398 54.8116 6.92066 54.8116 7.3986C54.8116 7.95754 54.6091 8.43953 54.204 8.84456C53.8071 9.24149 53.1307 9.55741 52.1748 9.79233C52.3773 10.165 52.7621 10.3513 53.3292 10.3513C53.6937 10.3513 54.1068 10.2257 54.5686 9.9746C55.0384 9.71538 55.4434 9.3792 55.7837 8.96607C55.8809 8.85266 55.9902 8.79595 56.1117 8.79595ZM53.0497 7.03407C52.75 7.03407 52.4948 7.20823 52.2842 7.55656C52.0817 7.90489 51.9804 8.32612 51.9804 8.82026V8.84456C52.4583 8.73115 52.835 8.56104 53.1104 8.33422C53.3859 8.1074 53.5236 7.84413 53.5236 7.54441C53.5236 7.3905 53.479 7.26899 53.3899 7.17988C53.3089 7.08267 53.1955 7.03407 53.0497 7.03407ZM60.8819 8.79595C60.9872 8.79595 61.0682 8.84456 61.1249 8.94177C61.1897 9.03897 61.2221 9.17263 61.2221 9.34275C61.2221 9.66677 61.1452 9.91789 60.9913 10.0961C60.6916 10.4606 60.2663 10.7968 59.7154 11.1046C59.1727 11.4125 58.5894 11.5664 57.9657 11.5664C57.1151 11.5664 56.4549 11.3355 55.9851 10.8738C55.5153 10.412 55.2803 9.78018 55.2803 8.97822C55.2803 8.41928 55.3978 7.90083 55.6327 7.4229C55.8676 6.93686 56.1917 6.55208 56.6048 6.26856C57.026 5.98504 57.4999 5.84327 58.0265 5.84327C58.4963 5.84327 58.873 5.98504 59.1565 6.26856C59.44 6.54398 59.5818 6.92066 59.5818 7.3986C59.5818 7.95754 59.3793 8.43953 58.9742 8.84456C58.5773 9.24149 57.9009 9.55741 56.945 9.79233C57.1475 10.165 57.5323 10.3513 58.0994 10.3513C58.4639 10.3513 58.877 10.2257 59.3388 9.9746C59.8086 9.71538 60.2136 9.3792 60.5538 8.96607C60.6511 8.85266 60.7604 8.79595 60.8819 8.79595ZM57.8199 7.03407C57.5202 7.03407 57.265 7.20823 57.0544 7.55656C56.8519 7.90489 56.7506 8.32612 56.7506 8.82026V8.84456C57.2285 8.73115 57.6052 8.56104 57.8806 8.33422C58.1561 8.1074 58.2938 7.84413 58.2938 7.54441C58.2938 7.3905 58.2492 7.26899 58.1601 7.17988C58.0791 7.08267 57.9657 7.03407 57.8199 7.03407ZM65.1418 7.50795C65.32 7.50795 65.4699 7.57276 65.5914 7.70237C65.721 7.82388 65.7858 7.97779 65.7858 8.16411C65.7858 8.26941 65.7615 8.38282 65.7129 8.50433C65.5833 8.80406 65.401 9.05517 65.1661 9.25769C64.9312 9.46021 64.6719 9.56146 64.3884 9.56146C64.1616 9.56146 63.9672 9.48046 63.8052 9.31845C63.6513 9.15643 63.5743 8.93772 63.5743 8.66229C63.5743 8.50838 63.5824 8.34232 63.5986 8.16411C63.6148 8.0345 63.6229 7.94539 63.6229 7.89678C63.6229 7.83198 63.6067 7.78338 63.5743 7.75097C63.55 7.71857 63.5176 7.70237 63.4771 7.70237C63.3637 7.70237 63.2098 7.84008 63.0154 8.1155C62.8209 8.38282 62.6265 8.73925 62.4321 9.18478C62.2377 9.63032 62.0797 10.1002 61.9582 10.5943C61.8691 10.9831 61.7679 11.2423 61.6545 11.372C61.541 11.5016 61.3547 11.5664 61.0955 11.5664C60.7877 11.5664 60.569 11.4044 60.4394 11.0803C60.3179 10.7563 60.2571 10.2379 60.2571 9.52501C60.2571 8.47193 60.407 7.4715 60.7067 6.52373C60.7796 6.28881 60.897 6.1187 61.0591 6.01339C61.2292 5.89998 61.4641 5.84327 61.7638 5.84327C61.9258 5.84327 62.0392 5.86353 62.104 5.90403C62.1688 5.94453 62.2012 6.02149 62.2012 6.1349C62.2012 6.26451 62.1405 6.55613 62.019 7.00977C61.938 7.33379 61.8732 7.61731 61.8246 7.86033C61.776 8.10335 61.7355 8.40307 61.7031 8.7595C61.9704 8.06285 62.2701 7.4958 62.6022 7.05837C62.9344 6.62094 63.2584 6.30906 63.5743 6.12275C63.8902 5.93643 64.1778 5.84327 64.437 5.84327C64.6719 5.84327 64.8502 5.91213 64.9717 6.04984C65.1013 6.17945 65.1661 6.37387 65.1661 6.63309C65.1661 6.787 65.1215 7.07862 65.0324 7.50795H65.1418ZM79.7201 8.82026C79.8254 8.82026 79.9064 8.87291 79.9631 8.97822C80.0279 9.07543 80.0603 9.20099 80.0603 9.3549C80.0603 9.54121 80.0319 9.68702 79.9752 9.79233C79.9185 9.89764 79.8294 9.9908 79.7079 10.0718C79.23 10.3877 78.4685 10.9062 77.4235 11.6271C77.1076 13.304 76.6985 14.6244 76.1963 15.5883C75.694 16.5523 75.0581 17.0343 74.2886 17.0343C73.8755 17.0343 73.5393 16.9047 73.2801 16.6455C73.0208 16.3943 72.8912 16.0622 72.8912 15.6491C72.8912 15.2684 72.9763 14.8836 73.1464 14.4947C73.3165 14.1059 73.6324 13.6563 74.0942 13.146C74.564 12.6357 75.2242 12.0524 76.0748 11.3963L76.1112 11.1654C75.4713 11.4327 74.8435 11.5664 74.2278 11.5664C73.3206 11.5664 72.5226 11.3922 71.8341 11.0439C71.1455 10.6875 70.6109 10.1852 70.2302 9.53716C69.8494 8.88911 69.6591 8.13575 69.6591 7.27709C69.6591 6.07819 69.8859 5.02106 70.3395 4.10569C70.7932 3.18222 71.4169 2.46936 72.2108 1.96712C73.0127 1.45678 73.9079 1.20161 74.8961 1.20161C75.8439 1.20161 76.5527 1.42438 77.0225 1.86992C77.5005 2.30735 77.7395 2.8906 77.7395 3.61965C77.7395 4.09759 77.6503 4.48237 77.4721 4.77399C77.302 5.05751 77.055 5.19927 76.7309 5.19927C76.5122 5.19927 76.334 5.14662 76.1963 5.04131C76.0667 4.936 76.0019 4.79019 76.0019 4.60388C76.0019 4.52287 76.0181 4.38516 76.0505 4.19075C76.0991 3.96393 76.1234 3.78571 76.1234 3.6561C76.1234 3.31588 76.0181 3.05261 75.8075 2.86629C75.6049 2.67998 75.2607 2.58682 74.7746 2.58682C74.1833 2.58682 73.6324 2.75693 73.1221 3.09716C72.6199 3.43739 72.2148 3.94773 71.907 4.62818C71.5992 5.30053 71.4453 6.1106 71.4453 7.05837C71.4453 8.03044 71.7085 8.7838 72.2351 9.31845C72.7697 9.84499 73.5393 10.1083 74.5438 10.1083C75.1027 10.1083 75.6859 9.9827 76.2935 9.73158L76.4636 8.24916H75.2242C74.9974 8.24916 74.8232 8.19651 74.7017 8.0912C74.5802 7.97779 74.5195 7.79553 74.5195 7.54441C74.5195 7.31759 74.5802 7.13938 74.7017 7.00977C74.8232 6.88016 74.9852 6.81535 75.1878 6.81535H77.46C77.6382 6.81535 77.784 6.87611 77.8974 6.99761C78.0189 7.11102 78.0675 7.27709 78.0432 7.4958C78.0189 7.75502 77.9379 8.34232 77.8002 9.25769L77.6665 10.1812C78.3146 9.69512 78.9059 9.27389 79.4406 8.91746C79.5459 8.85266 79.6391 8.82026 79.7201 8.82026ZM74.4222 15.8557C74.6329 15.8557 74.8637 15.6167 75.1149 15.1387C75.366 14.6608 75.6009 13.8913 75.8196 12.8301C75.204 13.3566 74.7584 13.8305 74.483 14.2517C74.2157 14.6811 74.082 15.0577 74.082 15.3818C74.082 15.6977 74.1954 15.8557 74.4222 15.8557ZM80.6895 11.5664C80.1872 11.5664 79.7863 11.3841 79.4865 11.0196C79.1868 10.655 79.037 10.1771 79.037 9.58577C79.037 8.93772 79.1868 8.32612 79.4865 7.75097C79.7863 7.16773 80.1832 6.70194 80.6773 6.35361C81.1796 5.99719 81.7102 5.81897 82.2691 5.81897C82.4473 5.81897 82.5648 5.85543 82.6215 5.92833C82.6863 5.99314 82.7389 6.11465 82.7794 6.29286C82.9496 6.26046 83.1278 6.24426 83.3141 6.24426C83.711 6.24426 83.9095 6.38602 83.9095 6.66954C83.9095 6.83965 83.8487 7.24468 83.7272 7.88463C83.5409 8.81621 83.4477 9.46426 83.4477 9.82878C83.4477 9.95029 83.4761 10.0475 83.5328 10.1204C83.5976 10.1933 83.6786 10.2298 83.7758 10.2298C83.9297 10.2298 84.116 10.1326 84.3348 9.93814C84.5535 9.73563 84.8492 9.4116 85.2218 8.96607C85.319 8.85266 85.4284 8.79595 85.5499 8.79595C85.6552 8.79595 85.7362 8.84456 85.7929 8.94177C85.8577 9.03897 85.8901 9.17263 85.8901 9.34275C85.8901 9.66677 85.8131 9.91789 85.6592 10.0961C85.3271 10.5092 84.9747 10.8576 84.6021 11.1411C84.2295 11.4246 83.869 11.5664 83.5207 11.5664C83.2533 11.5664 83.0063 11.4773 82.7794 11.299C82.5607 11.1127 82.3947 10.8616 82.2813 10.5457C81.86 11.2261 81.3294 11.5664 80.6895 11.5664ZM81.1269 10.3391C81.3051 10.3391 81.4752 10.2338 81.6373 10.0232C81.7993 9.81258 81.9167 9.53311 81.9896 9.18478L82.4392 6.94901C82.099 6.95711 81.7831 7.08672 81.4914 7.33784C81.2079 7.58086 80.9811 7.90489 80.811 8.30992C80.6409 8.71495 80.5558 9.14428 80.5558 9.59792C80.5558 9.84904 80.6044 10.0354 80.7016 10.1569C80.8069 10.2784 80.9487 10.3391 81.1269 10.3391ZM85.7653 11.5664C85.4574 11.5664 85.2387 11.4044 85.1091 11.0803C84.9876 10.7563 84.9268 10.2379 84.9268 9.52501C84.9268 8.47193 85.0767 7.4715 85.3764 6.52373C85.4493 6.28881 85.5668 6.1187 85.7288 6.01339C85.8989 5.89998 86.1338 5.84327 86.4336 5.84327C86.5956 5.84327 86.709 5.86353 86.7738 5.90403C86.8386 5.94453 86.871 6.02149 86.871 6.1349C86.871 6.26451 86.8102 6.55613 86.6887 7.00977C86.6077 7.33379 86.5429 7.61731 86.4943 7.86033C86.4457 8.09525 86.4052 8.39092 86.3728 8.74735C86.5915 8.1155 86.8507 7.58086 87.1505 7.14343C87.4583 6.70599 87.7702 6.38197 88.0861 6.17135C88.4101 5.95263 88.7139 5.84327 88.9974 5.84327C89.2809 5.84327 89.4794 5.90808 89.5928 6.03769C89.7143 6.1673 89.7751 6.36577 89.7751 6.63309C89.7751 6.89231 89.6981 7.36214 89.5442 8.0426C89.4794 8.33422 89.4348 8.55294 89.4105 8.69875C89.8156 7.70237 90.2652 6.97736 90.7593 6.52373C91.2534 6.07009 91.7152 5.84327 92.1445 5.84327C92.671 5.84327 92.9343 6.10655 92.9343 6.63309C92.9343 6.94901 92.8452 7.52011 92.667 8.34637C92.5131 9.05112 92.4361 9.51691 92.4361 9.74373C92.4361 10.0678 92.5536 10.2298 92.7885 10.2298C92.9505 10.2298 93.1409 10.1326 93.3596 9.93814C93.5864 9.73563 93.8861 9.4116 94.2588 8.96607C94.356 8.85266 94.4653 8.79595 94.5868 8.79595C94.6921 8.79595 94.7732 8.84456 94.8299 8.94177C94.8947 9.03897 94.9271 9.17263 94.9271 9.34275C94.9271 9.66677 94.8501 9.91789 94.6962 10.0961C94.3479 10.5254 93.9712 10.8778 93.5662 11.1532C93.1692 11.4287 92.7156 11.5664 92.2053 11.5664C91.7921 11.5664 91.4802 11.4489 91.2696 11.214C91.059 10.971 90.9537 10.6226 90.9537 10.169C90.9537 9.94219 91.0104 9.53716 91.1238 8.95392C91.2291 8.44358 91.2818 8.0912 91.2818 7.89678C91.2818 7.76717 91.2372 7.70237 91.1481 7.70237C91.0428 7.70237 90.893 7.84008 90.6985 8.1155C90.5041 8.38282 90.3097 8.73925 90.1153 9.18478C89.9209 9.63032 89.7629 10.1002 89.6414 10.5943C89.5523 10.9831 89.447 11.2423 89.3255 11.372C89.2121 11.5016 89.0258 11.5664 88.7665 11.5664C88.4992 11.5664 88.2967 11.4408 88.159 11.1897C88.0294 10.9305 87.9646 10.6186 87.9646 10.2541C87.9646 9.94624 88.0051 9.50071 88.0861 8.91746C88.1509 8.39902 88.1833 8.0588 88.1833 7.89678C88.1833 7.76717 88.1387 7.70237 88.0496 7.70237C87.9281 7.70237 87.7742 7.84818 87.5879 8.1398C87.4016 8.43143 87.2193 8.80406 87.0411 9.25769C86.871 9.71133 86.7333 10.1569 86.628 10.5943C86.5389 10.975 86.4336 11.2342 86.312 11.372C86.1986 11.5016 86.0164 11.5664 85.7653 11.5664ZM95.5363 5.04131C95.1961 5.04131 94.9409 4.96436 94.7708 4.81044C94.6007 4.64843 94.5156 4.42566 94.5156 4.14214C94.5156 3.85862 94.625 3.6237 94.8437 3.43739C95.0705 3.24297 95.35 3.14576 95.6821 3.14576C95.9819 3.14576 96.2249 3.21867 96.4112 3.36448C96.5975 3.51029 96.6907 3.71686 96.6907 3.98418C96.6907 4.30821 96.5853 4.56743 96.3747 4.76184C96.1641 4.94816 95.8846 5.04131 95.5363 5.04131ZM95.4391 11.5664C94.9126 11.5664 94.5278 11.3801 94.2848 11.0074C94.0499 10.6348 93.9324 10.1407 93.9324 9.52501C93.9324 9.16048 93.9769 8.6947 94.0661 8.12765C94.1633 7.55251 94.2848 7.01787 94.4306 6.52373C94.5035 6.26451 94.6007 6.08629 94.7222 5.98909C94.8437 5.89188 95.0381 5.84327 95.3054 5.84327C95.7186 5.84327 95.9251 5.98099 95.9251 6.25641C95.9251 6.45892 95.8482 6.92876 95.6943 7.66592C95.4999 8.55699 95.4027 9.16048 95.4027 9.47641C95.4027 9.71943 95.4351 9.90574 95.4999 10.0354C95.5647 10.165 95.674 10.2298 95.8279 10.2298C95.9738 10.2298 96.156 10.1285 96.3747 9.92599C96.5934 9.72348 96.8851 9.4035 97.2496 8.96607C97.3468 8.85266 97.4562 8.79595 97.5777 8.79595C97.683 8.79595 97.764 8.84456 97.8207 8.94177C97.8855 9.03897 97.9179 9.17263 97.9179 9.34275C97.9179 9.66677 97.8409 9.91789 97.687 10.0961C96.8851 11.0763 96.1358 11.5664 95.4391 11.5664ZM97.7975 11.5664C97.4897 11.5664 97.271 11.4044 97.1414 11.0803C97.0199 10.7563 96.9591 10.2379 96.9591 9.52501C96.9591 8.47193 97.109 7.4715 97.4087 6.52373C97.4816 6.28881 97.5991 6.1187 97.7611 6.01339C97.9312 5.89998 98.1661 5.84327 98.4658 5.84327C98.6278 5.84327 98.7413 5.86353 98.8061 5.90403C98.8709 5.94453 98.9033 6.02149 98.9033 6.1349C98.9033 6.26451 98.8425 6.55613 98.721 7.00977C98.64 7.33379 98.5752 7.61731 98.5266 7.86033C98.478 8.10335 98.4375 8.40307 98.4051 8.7595C98.6724 8.06285 98.9721 7.4958 99.3042 7.05837C99.6364 6.62094 99.9604 6.30906 100.276 6.12275C100.6 5.93643 100.896 5.84327 101.163 5.84327C101.69 5.84327 101.953 6.10655 101.953 6.63309C101.953 6.94901 101.864 7.52011 101.686 8.34637C101.532 9.05112 101.455 9.51691 101.455 9.74373C101.455 10.0678 101.572 10.2298 101.807 10.2298C101.969 10.2298 102.16 10.1326 102.378 9.93814C102.605 9.73563 102.905 9.4116 103.278 8.96607C103.375 8.85266 103.484 8.79595 103.606 8.79595C103.711 8.79595 103.792 8.84456 103.849 8.94177C103.914 9.03897 103.946 9.17263 103.946 9.34275C103.946 9.66677 103.869 9.91789 103.715 10.0961C103.367 10.5254 102.99 10.8778 102.585 11.1532C102.188 11.4287 101.734 11.5664 101.224 11.5664C100.811 11.5664 100.499 11.4489 100.288 11.214C100.078 10.971 99.9726 10.6226 99.9726 10.169C99.9726 9.94219 100.029 9.53716 100.143 8.95392C100.248 8.44358 100.301 8.0912 100.301 7.89678C100.301 7.76717 100.256 7.70237 100.167 7.70237C100.062 7.70237 99.9118 7.84008 99.7174 8.1155C99.5311 8.38282 99.3367 8.73925 99.1341 9.18478C98.9397 9.63032 98.7818 10.1002 98.6602 10.5943C98.5711 10.975 98.4658 11.2342 98.3443 11.372C98.2309 11.5016 98.0487 11.5664 97.7975 11.5664ZM107.082 6.24426C107.285 6.24426 107.426 6.27666 107.507 6.34146C107.596 6.39817 107.641 6.51563 107.641 6.69384C107.641 6.79105 107.637 6.868 107.629 6.92471C107.596 7.17583 107.495 7.82388 107.325 8.86886C107.204 9.57361 107.127 10.0394 107.094 10.2662C106.786 12.3562 106.369 14.0047 105.843 15.2117C105.324 16.4267 104.628 17.0343 103.753 17.0343C103.34 17.0343 103.003 16.9047 102.744 16.6455C102.485 16.3943 102.355 16.0622 102.355 15.6491C102.355 15.0739 102.582 14.4542 103.036 13.79C103.489 13.1338 104.34 12.3238 105.587 11.3598L105.66 10.8859C105.523 11.1046 105.34 11.2747 105.114 11.3963C104.895 11.5097 104.676 11.5664 104.457 11.5664C103.955 11.5664 103.554 11.3841 103.254 11.0196C102.955 10.655 102.805 10.1771 102.805 9.58577C102.805 8.93772 102.955 8.32612 103.254 7.75097C103.554 7.16773 103.951 6.70194 104.445 6.35361C104.947 5.99719 105.478 5.81897 106.037 5.81897C106.215 5.81897 106.333 5.85543 106.389 5.92833C106.454 5.99314 106.507 6.11465 106.547 6.29286C106.701 6.26046 106.879 6.24426 107.082 6.24426ZM104.895 10.3391C105.081 10.3391 105.259 10.2257 105.429 9.9989C105.6 9.77208 105.721 9.44806 105.794 9.02682L106.183 6.94901C105.851 6.95711 105.543 7.08672 105.259 7.33784C104.976 7.58086 104.749 7.90489 104.579 8.30992C104.409 8.71495 104.324 9.14428 104.324 9.59792C104.324 9.84904 104.372 10.0354 104.47 10.1569C104.575 10.2784 104.717 10.3391 104.895 10.3391ZM103.886 15.8557C104.089 15.8557 104.316 15.6126 104.567 15.1266C104.826 14.6406 105.073 13.8669 105.308 12.8058C104.684 13.3404 104.235 13.8224 103.959 14.2517C103.684 14.6811 103.546 15.0577 103.546 15.3818C103.546 15.5195 103.57 15.6329 103.619 15.722C103.676 15.8111 103.765 15.8557 103.886 15.8557ZM114.699 11.5664C114.14 11.5664 113.634 11.4287 113.18 11.1532C112.735 10.8778 112.382 10.4809 112.123 9.96245C111.864 9.4359 111.734 8.81621 111.734 8.10335C111.734 6.87205 111.997 5.73392 112.524 4.68893C113.051 3.63585 113.828 2.79339 114.857 2.16154C115.886 1.52159 117.121 1.20161 118.563 1.20161C118.936 1.20161 119.333 1.22997 119.754 1.28667C120.183 1.34337 120.572 1.42843 120.92 1.54184C121.147 1.60665 121.261 1.76866 121.261 2.02788C121.261 2.23849 121.18 2.43696 121.018 2.62327C120.864 2.80959 120.681 2.90275 120.471 2.90275C120.406 2.90275 120.357 2.8987 120.325 2.89059C119.904 2.79339 119.543 2.72453 119.243 2.68403C118.944 2.63543 118.628 2.61112 118.296 2.61112C117.267 2.61112 116.392 2.86224 115.671 3.36448C114.95 3.85862 114.411 4.51477 114.055 5.33294C113.699 6.1511 113.52 7.03407 113.52 7.98184C113.52 8.67039 113.654 9.20504 113.921 9.58577C114.197 9.95839 114.553 10.1447 114.991 10.1447C115.485 10.1447 115.918 9.94219 116.291 9.53716C116.663 9.13213 117.004 8.47598 117.311 7.56871C117.619 6.66144 117.923 5.43014 118.223 3.87482C118.271 3.648 118.369 3.49409 118.514 3.41309C118.66 3.33208 118.855 3.29158 119.098 3.29158C119.673 3.29158 119.96 3.47789 119.96 3.85052C119.96 3.91532 119.948 3.99633 119.924 4.09354C119.713 4.8793 119.519 5.75012 119.341 6.70599C119.171 7.65377 119.086 8.37472 119.086 8.86886C119.086 9.30629 119.15 9.62627 119.28 9.82878C119.41 10.0232 119.608 10.1204 119.875 10.1204C120.135 10.1204 120.382 10.0354 120.617 9.86524C120.851 9.68702 121.147 9.3873 121.504 8.96607C121.601 8.85266 121.71 8.79595 121.832 8.79595C121.937 8.79595 122.018 8.84456 122.075 8.94177C122.139 9.03897 122.172 9.17263 122.172 9.34275C122.172 9.65867 122.095 9.90979 121.941 10.0961C121.544 10.574 121.155 10.9386 120.774 11.1897C120.394 11.4408 119.928 11.5664 119.377 11.5664C118.81 11.5664 118.352 11.4044 118.004 11.0803C117.656 10.7482 117.437 10.2824 117.348 9.68297C116.748 10.9386 115.866 11.5664 114.699 11.5664ZM127.678 8.79595C127.783 8.79595 127.864 8.84456 127.921 8.94177C127.986 9.03897 128.018 9.17263 128.018 9.34275C128.018 9.66677 127.941 9.91789 127.787 10.0961C127.439 10.5254 127.062 10.8778 126.657 11.1532C126.26 11.4287 125.807 11.5664 125.296 11.5664C124.867 11.5664 124.519 11.4125 124.251 11.1046C123.79 11.4044 123.308 11.5583 122.805 11.5664C122.7 13.1298 122.461 14.434 122.088 15.479C121.716 16.5321 121.169 17.0586 120.448 17.0586C120.011 17.0586 119.687 16.9006 119.476 16.5847C119.265 16.2688 119.16 15.8314 119.16 15.2724C119.16 14.4785 119.342 13.551 119.707 12.4898C120.071 11.4368 120.634 10.2743 121.396 9.00252C121.396 7.81983 121.388 6.99761 121.372 6.53588C121.363 6.30096 121.457 6.11465 121.651 5.97694C121.845 5.83922 122.088 5.77037 122.38 5.77037C122.55 5.77037 122.672 5.80682 122.745 5.87973C122.826 5.94453 122.87 6.07819 122.878 6.28071C122.878 6.48322 122.882 6.63309 122.89 6.73029C123.15 6.40627 123.405 6.1754 123.656 6.03769C123.907 5.89188 124.174 5.81897 124.458 5.81897C124.911 5.81897 125.28 6.00124 125.564 6.36577C125.855 6.73029 126.001 7.20823 126.001 7.79958C126.001 8.22891 125.932 8.64609 125.794 9.05112C125.657 9.45616 125.466 9.82473 125.223 10.1569C125.393 10.2055 125.535 10.2298 125.649 10.2298C125.916 10.2298 126.171 10.1326 126.414 9.93814C126.657 9.74373 126.969 9.4197 127.35 8.96607C127.447 8.85266 127.556 8.79595 127.678 8.79595ZM122.866 10.3999C123.158 10.3351 123.425 10.1771 123.668 9.92599C123.919 9.66677 124.118 9.35085 124.263 8.97822C124.409 8.59749 124.482 8.20056 124.482 7.78743C124.482 7.54441 124.434 7.36214 124.336 7.24063C124.239 7.11102 124.11 7.04622 123.948 7.04622C123.656 7.04622 123.304 7.35404 122.89 7.96969C122.882 8.32612 122.878 8.84861 122.878 9.53716C122.878 9.90979 122.874 10.1974 122.866 10.3999ZM120.545 15.8678C120.764 15.8678 120.946 15.3899 121.092 14.434C121.238 13.4862 121.331 12.3035 121.372 10.8859C121.023 11.696 120.748 12.4696 120.545 13.2067C120.343 13.9439 120.241 14.5636 120.241 15.0658C120.241 15.3251 120.274 15.5235 120.339 15.6612C120.395 15.7989 120.464 15.8678 120.545 15.8678ZM131.851 7.79958C131.851 8.43953 131.701 9.04707 131.401 9.62222C131.11 10.1893 130.717 10.651 130.223 11.0074C129.737 11.3639 129.214 11.5502 128.655 11.5664C128.55 13.1298 128.311 14.434 127.938 15.479C127.566 16.5321 127.019 17.0586 126.298 17.0586C125.861 17.0586 125.537 16.9006 125.326 16.5847C125.115 16.2688 125.01 15.8314 125.01 15.2724C125.01 14.4785 125.192 13.551 125.557 12.4898C125.921 11.4368 126.484 10.2743 127.246 9.00252C127.246 7.81983 127.238 6.99761 127.222 6.53588C127.213 6.30096 127.307 6.11465 127.501 5.97694C127.695 5.83922 127.938 5.77037 128.23 5.77037C128.4 5.77037 128.522 5.80682 128.595 5.87973C128.676 5.94453 128.72 6.07819 128.728 6.28071C128.728 6.48322 128.732 6.63309 128.74 6.73029C129 6.40627 129.255 6.1754 129.506 6.03769C129.757 5.89188 130.024 5.81897 130.308 5.81897C130.761 5.81897 131.13 6.00124 131.414 6.36577C131.705 6.73029 131.851 7.20823 131.851 7.79958ZM128.716 10.3999C129.008 10.3351 129.275 10.1771 129.518 9.92599C129.769 9.66677 129.968 9.35085 130.113 8.97822C130.259 8.59749 130.332 8.20056 130.332 7.78743C130.332 7.54441 130.284 7.36214 130.186 7.24063C130.089 7.11102 129.96 7.04622 129.798 7.04622C129.506 7.04622 129.154 7.35404 128.74 7.96969C128.732 8.32612 128.728 8.84861 128.728 9.53716C128.728 9.90979 128.724 10.1974 128.716 10.3999ZM126.395 15.8678C126.614 15.8678 126.796 15.3899 126.942 14.434C127.088 13.4862 127.181 12.3035 127.222 10.8859C126.873 11.696 126.598 12.4696 126.395 13.2067C126.193 13.9439 126.091 14.5636 126.091 15.0658C126.091 15.3251 126.124 15.5235 126.189 15.6612C126.245 15.7989 126.314 15.8678 126.395 15.8678Z" fill="black"/>
</svg>
